<mxfile host="app.diagrams.net" modified="2023-03-11T14:52:32.834Z" agent="5.0 (Macintosh; Intel Mac OS X 10_15_7) AppleWebKit/537.36 (KHTML, like Gecko) Chrome/110.0.0.0 Safari/537.36" etag="iMJHddrteZy9PmU7locH" version="20.8.23" type="github">
  <diagram name="第 1 页" id="xSxCpuKxewRo8v62gq4V">
    <mxGraphModel dx="821" dy="486" grid="0" gridSize="10" guides="1" tooltips="1" connect="1" arrows="1" fold="1" page="0" pageScale="1" pageWidth="827" pageHeight="1169" math="0" shadow="0">
      <root>
        <mxCell id="0" />
        <mxCell id="1" parent="0" />
        <mxCell id="RoLGGAFcDj7nN2RxL2KP-1" value="" style="edgeStyle=none;orthogonalLoop=1;jettySize=auto;html=1;rounded=0;" edge="1" parent="1">
          <mxGeometry width="100" relative="1" as="geometry">
            <mxPoint x="180" y="97" as="sourcePoint" />
            <mxPoint x="180" y="169" as="targetPoint" />
            <Array as="points" />
          </mxGeometry>
        </mxCell>
        <mxCell id="RoLGGAFcDj7nN2RxL2KP-3" value="" style="edgeStyle=none;orthogonalLoop=1;jettySize=auto;html=1;rounded=0;" edge="1" parent="1">
          <mxGeometry width="100" relative="1" as="geometry">
            <mxPoint x="260" y="97" as="sourcePoint" />
            <mxPoint x="260" y="169" as="targetPoint" />
            <Array as="points" />
          </mxGeometry>
        </mxCell>
        <mxCell id="RoLGGAFcDj7nN2RxL2KP-4" value="" style="edgeStyle=none;orthogonalLoop=1;jettySize=auto;html=1;rounded=0;" edge="1" parent="1">
          <mxGeometry width="100" relative="1" as="geometry">
            <mxPoint x="221" y="97" as="sourcePoint" />
            <mxPoint x="221" y="169" as="targetPoint" />
            <Array as="points" />
          </mxGeometry>
        </mxCell>
        <mxCell id="RoLGGAFcDj7nN2RxL2KP-5" value="" style="edgeStyle=none;orthogonalLoop=1;jettySize=auto;html=1;rounded=0;" edge="1" parent="1">
          <mxGeometry width="100" relative="1" as="geometry">
            <mxPoint x="299" y="97" as="sourcePoint" />
            <mxPoint x="299" y="169" as="targetPoint" />
            <Array as="points" />
          </mxGeometry>
        </mxCell>
        <mxCell id="RoLGGAFcDj7nN2RxL2KP-6" value="" style="edgeStyle=none;orthogonalLoop=1;jettySize=auto;html=1;rounded=0;" edge="1" parent="1">
          <mxGeometry width="100" relative="1" as="geometry">
            <mxPoint x="379" y="97" as="sourcePoint" />
            <mxPoint x="379" y="169" as="targetPoint" />
            <Array as="points" />
          </mxGeometry>
        </mxCell>
        <mxCell id="RoLGGAFcDj7nN2RxL2KP-7" value="" style="edgeStyle=none;orthogonalLoop=1;jettySize=auto;html=1;rounded=0;" edge="1" parent="1">
          <mxGeometry width="100" relative="1" as="geometry">
            <mxPoint x="340" y="97" as="sourcePoint" />
            <mxPoint x="340" y="169" as="targetPoint" />
            <Array as="points" />
          </mxGeometry>
        </mxCell>
        <mxCell id="RoLGGAFcDj7nN2RxL2KP-10" style="edgeStyle=orthogonalEdgeStyle;rounded=0;orthogonalLoop=1;jettySize=auto;html=1;exitX=0.5;exitY=1;exitDx=0;exitDy=0;" edge="1" parent="1" source="RoLGGAFcDj7nN2RxL2KP-9">
          <mxGeometry relative="1" as="geometry">
            <mxPoint x="278.20000000000005" y="277.20000000000005" as="targetPoint" />
          </mxGeometry>
        </mxCell>
        <mxCell id="RoLGGAFcDj7nN2RxL2KP-9" value="多个线程同时执行&lt;br&gt;insert into db_lock(lock_name) values (&#39;lock&#39;)&lt;br&gt;由于 lock_name 创建了 unique 索引，只有一个可以执行成功" style="whiteSpace=wrap;html=1;" vertex="1" parent="1">
          <mxGeometry x="101" y="171" width="354" height="60" as="geometry" />
        </mxCell>
        <mxCell id="RoLGGAFcDj7nN2RxL2KP-12" style="edgeStyle=orthogonalEdgeStyle;rounded=0;orthogonalLoop=1;jettySize=auto;html=1;exitX=0.5;exitY=1;exitDx=0;exitDy=0;" edge="1" parent="1" source="RoLGGAFcDj7nN2RxL2KP-11">
          <mxGeometry relative="1" as="geometry">
            <mxPoint x="278.20000000000005" y="385.20000000000005" as="targetPoint" />
          </mxGeometry>
        </mxCell>
        <mxCell id="RoLGGAFcDj7nN2RxL2KP-11" value="获取到锁执行业务逻辑" style="whiteSpace=wrap;html=1;" vertex="1" parent="1">
          <mxGeometry x="211" y="278" width="134" height="60" as="geometry" />
        </mxCell>
        <mxCell id="RoLGGAFcDj7nN2RxL2KP-15" style="edgeStyle=orthogonalEdgeStyle;rounded=0;orthogonalLoop=1;jettySize=auto;html=1;exitX=0.5;exitY=1;exitDx=0;exitDy=0;entryX=0.5;entryY=0;entryDx=0;entryDy=0;entryPerimeter=0;" edge="1" parent="1" source="RoLGGAFcDj7nN2RxL2KP-13" target="RoLGGAFcDj7nN2RxL2KP-14">
          <mxGeometry relative="1" as="geometry" />
        </mxCell>
        <mxCell id="RoLGGAFcDj7nN2RxL2KP-13" value="释放锁，执行：&lt;br&gt;delete from db_lock where lock_name = &#39;lock&#39;" style="whiteSpace=wrap;html=1;" vertex="1" parent="1">
          <mxGeometry x="160" y="385" width="241" height="60" as="geometry" />
        </mxCell>
        <mxCell id="RoLGGAFcDj7nN2RxL2KP-14" value="结束" style="strokeWidth=2;html=1;shape=mxgraph.flowchart.terminator;whiteSpace=wrap;" vertex="1" parent="1">
          <mxGeometry x="228" y="484" width="100" height="46" as="geometry" />
        </mxCell>
      </root>
    </mxGraphModel>
  </diagram>
</mxfile>
